# xmcd
#
# Track frame offsets: 
#        150
#        10759
#        22775
#        35223
#        45658
#        56727
#        68311
#        80076
#        88957
#        98256
#        108822
#        119361
#        133495
#        143714
#        155354
#        167607
#        178341
#        190524
#        203571
#        216569
#        227930
#        240086
#        251531
#        261227
#        274114
#        285859
#
# Disc length: 3940 seconds
#
# Revision: 0
# Processed by: cddbd v1.5.2PL0 Copyright (c) Steve Scherf et al.
# Submitted via: ExactAudioCopyFreeDBPlugin 1.0
#
DISCID=620f621a
DTITLE=Various Artist - Desperate Rhythm and Blues Vol 1
DYEAR=1900
DGENRE=Rock
TTITLE0=Champion Jack Dupree - Shake Baby Shake
TTITLE1=Thelma Baxter - Poppa Stoppa
TTITLE2=Kansas City Jimmy - Saturday Night
TTITLE3=Piney Brown - How About Rockin' With Me
TTITLE4=Bumps Myer - I'm Clappin' And Shoutin'
TTITLE5=Kansas City Jimmy - Cheating Woman
TTITLE6=Piney Brown - That's Right Baby
TTITLE7=Floyd Turnham Orch - Bashful And Blue
TTITLE8=Al Savage - Be Seein' You In My Dreams
TTITLE9=Freddie Kohlman Orch - Hole In The Ground
TTITLE10=Jimmy Smith - Mama
TTITLE11=Milt Trenier - You're Killin' Me
TTITLE12=Piney Brown - Talkin' About You
TTITLE13=Piney Brown - You Bring Out The Wolf In Me
TTITLE14=Jimmy Preston - Oh! Babe
TTITLE15=Scatman Bailey - My, Oh My
TTITLE16=Jimmy Lewis - Let's Get Together And Make Some Love
TTITLE17=Milt Trenier And His Solid Six - Flip Our Wigs
TTITLE18=Carl Matthews - Big Man
TTITLE19=Blues Taylor - Hackensack Mama
TTITLE20=Elroy Peace - Onion Breath Baby
TTITLE21=Paul Bascomb - Mumbles Blue
TTITLE22=H Bomb Ferguson - Rock H Bomb Rock
TTITLE23=Sonny Parker - She Sets My Soul On Fire
TTITLE24=Bill Doggett - Quaker City
TTITLE25=Carmen Taylor - Ooh I
EXTD=
EXTT0=
EXTT1=
EXTT2=
EXTT3=
EXTT4=
EXTT5=
EXTT6=
EXTT7=
EXTT8=
EXTT9=
EXTT10=
EXTT11=
EXTT12=
EXTT13=
EXTT14=
EXTT15=
EXTT16=
EXTT17=
EXTT18=
EXTT19=
EXTT20=
EXTT21=
EXTT22=
EXTT23=
EXTT24=
EXTT25=
PLAYORDER=
